<?xml version="1.0" encoding="utf-8"?>
<!-- Generator: Adobe Illustrator 27.5.0, SVG Export Plug-In . SVG Version: 6.00 Build 0)  -->
<svg version="1.1" id="Layer_1" xmlns="http://www.w3.org/2000/svg" xmlns:xlink="http://www.w3.org/1999/xlink" x="0px" y="0px"
	 viewBox="0 0 2122 2122" style="enable-background:new 0 0 2122 2122;" xml:space="preserve">
<g>
	<rect style="fill:#FFFFFF;" width="2121.32" height="2121.32"/>
	<g>
		<path style="fill:#FF4242;" d="M1783.636,1189.099c-33.546-17.267-58.171,9.491-103.492,21.282
			c-66.49,17.298-77.771,57.724-54.982,79.893c22.789,22.169,62.272,4.417,91.11,20.98c0.089,0.052,0.179,0.103,0.268,0.155
			c0.091,0.047,0.183,0.095,0.275,0.143c29.465,15.42,35.71,58.258,66.651,65.565c30.941,7.307,58.973-23.93,37.834-89.3
			C1806.891,1243.259,1816.225,1208.113,1783.636,1189.099z"/>
		<path style="fill:#FF4242;" d="M1717.275,1120.806c4.496,35.18-10.246,66.049-32.925,68.948
			c-22.68,2.898-44.71-23.272-49.205-58.453c-4.496-35.181,10.246-66.05,32.925-68.947
			C1690.75,1059.455,1712.78,1085.625,1717.275,1120.806z"/>
		<path style="fill:#FF4242;" d="M1876.891,1208.368c-32.086,15.113-50.198,44.132-40.455,64.817
			c9.743,20.684,43.651,25.201,75.737,10.088c32.086-15.113,50.198-44.132,40.455-64.817
			C1942.885,1197.772,1908.976,1193.255,1876.891,1208.368z"/>
		<path style="fill:#FF4242;" d="M1823.223,1096.621c-11.961,35.439-40.178,57.916-63.025,50.205
			c-22.846-7.711-31.67-42.691-19.708-78.13c11.961-35.438,40.178-57.916,63.025-50.204S1835.184,1061.182,1823.223,1096.621z"/>
		<path style="fill:#FF4242;" d="M1840.357,1106.021c-23.461,29.131-27.255,65.005-8.475,80.129
			c18.78,15.124,53.022,3.77,76.482-25.361c23.46-29.131,27.254-65.006,8.475-80.13
			C1898.059,1065.536,1863.817,1076.891,1840.357,1106.021z"/>
	</g>
	<g>
		<path style="fill:#FF4242;" d="M1381.889,796.868c-37.383,5.107-42.197,41.151-72.55,76.812
			c-44.529,52.319-30.572,91.901,0.813,96.981c31.384,5.08,53.535-32.114,86.656-35.095c0.103-0.01,0.206-0.018,0.309-0.027
			c0.102-0.014,0.205-0.027,0.307-0.041c32.98-4.278,62.674,27.223,92.208,15.453c29.533-11.77,34.569-53.437-20.254-94.846
			C1432.011,827.881,1419.489,793.74,1381.889,796.868z"/>
		<path style="fill:#FF4242;" d="M1288.353,779.013c23.869,26.233,29.508,59.973,12.595,75.361
			c-16.911,15.387-49.97,6.594-73.839-19.639c-23.868-26.234-29.507-59.974-12.595-75.361
			C1231.427,743.987,1264.485,752.779,1288.353,779.013z"/>
		<path style="fill:#FF4242;" d="M1469.321,759.14c-17.606,30.788-15.789,64.948,4.059,76.298
			c19.848,11.351,50.21-4.407,67.817-35.195c17.607-30.788,15.79-64.948-4.058-76.298
			C1517.29,712.594,1486.927,728.352,1469.321,759.14z"/>
		<path style="fill:#FF4242;" d="M1361.247,698.413c10.537,35.888,0.326,70.487-22.81,77.281s-50.434-16.792-60.972-52.679
			c-10.537-35.888-0.326-70.487,22.81-77.281C1323.411,638.941,1350.709,662.526,1361.247,698.413z"/>
		<path style="fill:#FF4242;" d="M1380.674,696.28c-2.499,37.319,14.978,68.878,39.037,70.489s45.588-27.336,48.086-64.655
			c2.499-37.319-14.979-68.878-39.037-70.489C1404.702,630.014,1383.172,658.961,1380.674,696.28z"/>
	</g>
	<path style="fill:#FF4242;" d="M1340.135,452.384c-241.743,97.738-286.991,284.026-321.67,297.797
		c-11.339-16.688-82.677-396.424-368.139-425.84c-372.575-38.389-533.316,677.131,304.003,1457.391
		c61.84,57.621,125.968,49.475,154.594,19.594c246.297-257.075,494.151-694.474,575.538-928.482
		C1811.256,508.287,1581.908,354.633,1340.135,452.384z M1039.016,1797.088c-14.682,23.002-784.906-854.474-551.268-1292.481
		c68.598-128.624,232.204-131.935,349.568,56.598c103.122,165.677,85.51,344.275,126.589,412.711
		c15.456,25.747,63.33,30.991,80.625-5.163c6.338-13.249,7.422-35.91,9.494-55.855c50.068-346.865,473.157-500.497,549.337-325.784
		C1718.943,852.172,1193.911,1554.788,1039.016,1797.088z"/>
</g>
</svg>
